<svg width="50" height="24" viewBox="0 0 50 24" fill="none" xmlns="http://www.w3.org/2000/svg">
<g clip-path="url(#clip0)">
<ellipse cx="25" cy="24.5455" rx="13.8889" ry="13.6364" fill="#4E2C0D"/>
<path d="M24.6935 1.4659C25.0802 0.808424 26.0309 0.808422 26.4176 1.46589L29.4807 6.67492C29.8727 7.34156 29.392 8.18182 28.6187 8.18182H22.4924C21.7191 8.18182 21.2384 7.34156 21.6304 6.67492L24.6935 1.4659Z" fill="#4E2C0D"/>
<path d="M48.4653 23.13C49.1411 23.5131 49.1411 24.4868 48.4653 24.8699L43.1598 27.8774C42.4932 28.2553 41.6667 27.7737 41.6667 27.0074L41.6667 20.9926C41.6667 20.2263 42.4932 19.7447 43.1598 20.1226L48.4653 23.13Z" fill="#4E2C0D"/>
<path d="M1.53471 24.87C0.858886 24.4869 0.858886 23.5132 1.53471 23.1301L6.8402 20.1226C7.50683 19.7447 8.33333 20.2263 8.33333 20.9926L8.33333 27.0074C8.33333 27.7737 7.50683 28.2553 6.8402 27.8774L1.53471 24.87Z" fill="#4E2C0D"/>
<path d="M41.3824 8.01903C42.1328 7.82163 42.8194 8.49577 42.6183 9.23249L41.0326 15.0429C40.8315 15.7796 39.8936 16.0264 39.3443 15.487L35.012 11.2335C34.4627 10.6942 34.714 9.77332 35.4644 9.57592L41.3824 8.01903Z" fill="#4E2C0D"/>
<path d="M8.16762 8.4611C7.96656 7.72438 8.65319 7.05024 9.40355 7.24764L15.3216 8.80454C16.0719 9.00194 16.3232 9.92283 15.7739 10.4621L11.4417 14.7157C10.8923 15.255 9.9544 15.0082 9.75334 14.2715L8.16762 8.4611Z" fill="#4E2C0D"/>
</g>
<defs>
<clipPath id="clip0">
<rect width="50" height="24" fill="white"/>
</clipPath>
</defs>
</svg>
