<svg width="50" height="50" viewBox="0 0 50 50" fill="none" xmlns="http://www.w3.org/2000/svg">
<ellipse cx="25" cy="25" rx="13.8889" ry="13.8889" fill="#FCE5DF"/>
<path d="M24.6895 1.5C25.0744 0.833335 26.0367 0.833334 26.4216 1.5L29.5008 6.83333C29.8857 7.5 29.4046 8.33333 28.6348 8.33333H22.4764C21.7066 8.33333 21.2254 7.5 21.6103 6.83333L24.6895 1.5Z" fill="#FCE5DF"/>
<path d="M26.4216 48.5C26.0367 49.1667 25.0744 49.1667 24.6895 48.5L21.6103 43.1667C21.2254 42.5 21.7065 41.6667 22.4763 41.6667L28.6347 41.6667C29.4045 41.6667 29.8857 42.5 29.5008 43.1667L26.4216 48.5Z" fill="#FCE5DF"/>
<path d="M48.5 23.5784C49.1667 23.9633 49.1667 24.9256 48.5 25.3105L43.1667 28.3897C42.5 28.7746 41.6667 28.2934 41.6667 27.5236L41.6667 21.3652C41.6667 20.5954 42.5 20.1143 43.1667 20.4992L48.5 23.5784Z" fill="#FCE5DF"/>
<path d="M1.5 25.3105C0.833335 24.9256 0.833334 23.9633 1.5 23.5784L6.83333 20.4992C7.5 20.1143 8.33333 20.5954 8.33333 21.3652L8.33333 27.5236C8.33333 28.2934 7.5 28.7746 6.83333 28.3897L1.5 25.3105Z" fill="#FCE5DF"/>
<path d="M41.3977 8.16346C42.1412 7.96422 42.8217 8.64464 42.6224 9.38821L41.0285 15.3368C40.8293 16.0803 39.8998 16.3294 39.3555 15.7851L35.0008 11.4304C34.4565 10.8861 34.7055 9.95661 35.4491 9.75737L41.3977 8.16346Z" fill="#FCE5DF"/>
<path d="M9.38822 42.6222C8.64465 42.8214 7.96423 42.141 8.16347 41.3975L9.75738 35.4489C9.95662 34.7053 10.8861 34.4563 11.4304 35.0006L15.7851 39.3553C16.3294 39.8996 16.0803 40.8291 15.3368 41.0283L9.38822 42.6222Z" fill="#FCE5DF"/>
<path d="M42.6224 40.6118C42.8216 41.3554 42.1412 42.0358 41.3976 41.8365L35.4491 40.2426C34.7055 40.0434 34.4564 39.1139 35.0008 38.5696L39.3554 34.2149C39.8998 33.6706 40.8292 33.9197 41.0285 34.6632L42.6224 40.6118Z" fill="#FCE5DF"/>
<path d="M8.16352 8.60251C7.96429 7.85894 8.6447 7.17853 9.38827 7.37777L15.3368 8.97168C16.0804 9.17092 16.3294 10.1004 15.7851 10.6447L11.4305 14.9994C10.8861 15.5437 9.95668 15.2946 9.75744 14.5511L8.16352 8.60251Z" fill="#FCE5DF"/>
</svg>
